<svg width="304" height="304" viewBox="0 0 304 304" fill="none" xmlns="http://www.w3.org/2000/svg">
<rect width="304" height="304" fill="black"/>
<path d="M106.25 180.5L129.5 85C122.167 89.6667 115.917 93.5833 110.75 96.75C100.583 103.083 94.8333 106.25 93.5 106.25C92.8333 105.75 92.5 105.333 92.5 105C92.5 104 93 101.917 94 98.75C95 95.4167 96.1667 91.8333 97.5 88C105.333 83.3333 112.833 78.6667 120 74C127.167 69.1667 135.083 63.75 143.75 57.75L150.25 57.5C153.583 57.5 156.417 58 158.75 59L156 68.25C149.667 89.5833 143.417 113.083 137.25 138.75C145.417 133.083 154 126 163 117.5C169 111.833 176.917 103.667 186.75 93C194.25 84.6667 201.833 76.3333 209.5 68C212 65 214.333 62.5 216.5 60.5C218.833 58.3333 220.583 57.25 221.75 57.25C223.083 57.25 224.917 59.3333 227.25 63.5C229.75 67.5 231 70.1667 231 71.5C231 73.6667 225.667 79.75 215 89.75C206.167 97.9167 195.833 107 184 117C177.333 122.5 170.667 128 164 133.5C170.667 138.333 175.167 144.833 177.5 153C179.333 159.5 180.25 168.75 180.25 180.75V189C180.25 197.167 180.917 203.167 182.25 207C183.75 210.833 186.833 212.75 191.5 212.75C201.667 212.75 216.917 202.417 237.25 181.75V203C225.25 213 215.417 220 207.75 224C200.25 227.833 192.833 229.75 185.5 229.75C174.5 229.75 167.083 224.75 163.25 214.75C160.75 208.25 159.5 198.5 159.5 185.5V177.75C159.5 168.25 158.917 161.083 157.75 156.25C156.583 151.417 154.333 147.25 151 143.75C146.167 147.583 142.417 150.333 139.75 152C138.083 153 136 154.25 133.5 155.75L131 166.5C126.333 187.333 121.833 202 117.5 210.5C111 223.333 102.667 229.75 92.5 229.75C90.6667 229.75 89 229.583 87.5 229.25C86.1667 228.917 84.5833 228.25 82.75 227.25L78.75 209.75L86.5 210.5C91.1667 210.5 94.9167 208.25 97.75 203.75C100.75 199.25 103.583 191.5 106.25 180.5Z" fill="white"/>
</svg>
